<svg width="37" height="37" viewBox="0 0 37 37" fill="none" xmlns="http://www.w3.org/2000/svg">
<path fill-rule="evenodd" clip-rule="evenodd" d="M35.8053 1.19468C37.3982 2.78759 37.3982 5.37021 35.8053 6.96312L13.9262 28.8422H27.1527C29.4054 28.8422 31.2316 30.6684 31.2316 32.9211C31.2316 35.1738 29.4054 37 27.1527 37H4.0789C1.82619 37 0 35.1738 0 32.9211V9.84734C0 7.59463 1.82619 5.76844 4.0789 5.76844C6.33162 5.76844 8.1578 7.59463 8.1578 9.84734V23.0738L30.0369 1.19468C31.6298 -0.398228 34.2124 -0.398228 35.8053 1.19468Z" fill="white"/>
<path fill-rule="evenodd" clip-rule="evenodd" d="M35.8053 1.19468C37.3982 2.78759 37.3982 5.37021 35.8053 6.96312L13.9262 28.8422H27.1527C29.4054 28.8422 31.2316 30.6684 31.2316 32.9211C31.2316 35.1738 29.4054 37 27.1527 37H4.0789C1.82619 37 0 35.1738 0 32.9211V9.84734C0 7.59463 1.82619 5.76844 4.0789 5.76844C6.33162 5.76844 8.1578 7.59463 8.1578 9.84734V23.0738L30.0369 1.19468C31.6298 -0.398228 34.2124 -0.398228 35.8053 1.19468Z" fill="#4E515D"/>
</svg>
