<svg width="50" height="50" viewBox="0 0 50 50" fill="none" xmlns="http://www.w3.org/2000/svg">
<rect x="4" y="4" width="42" height="42" rx="12" fill="#1953FE"/>
<rect x="2" y="2" width="46" height="46" rx="14" stroke="#A3A3A3" stroke-opacity="0.4" stroke-width="4"/>
<path d="M37.2846 23.3657L26.3721 12.4532C25.9356 12.0167 25.3294 11.75 24.6625 11.75H16.175C14.8412 11.75 13.75 12.8412 13.75 14.175V22.6625C13.75 23.3294 14.0167 23.9356 14.4654 24.3842L25.3779 35.2967C25.8144 35.7332 26.4206 36 27.0875 36C27.7544 36 28.3606 35.7332 28.7971 35.2846L37.2846 26.7971C37.7332 26.3606 38 25.7544 38 25.0875C38 24.4206 37.7211 23.8022 37.2846 23.3657ZM27.0875 33.5871L16.175 22.6625V14.175H24.6625V14.1629L35.575 25.0754L27.0875 33.5871Z" fill="white"/>
<path d="M19.2055 19.0242C20.2099 19.0242 21.0242 18.2099 21.0242 17.2055C21.0242 16.201 20.2099 15.3867 19.2055 15.3867C18.201 15.3867 17.3867 16.201 17.3867 17.2055C17.3867 18.2099 18.201 19.0242 19.2055 19.0242Z" fill="white"/>
<path d="M22.1172 24.5423C22.1172 25.2334 22.3961 25.8396 22.8447 26.3004L27.0884 30.5441L31.3322 26.3004C31.7808 25.8518 32.0597 25.2213 32.0597 24.5423C32.0597 23.1721 30.9442 22.0566 29.5741 22.0566C28.8829 22.0566 28.2646 22.3355 27.8159 22.7841L27.0884 23.5116L26.3609 22.7963C25.9123 22.3355 25.2818 22.0566 24.6028 22.0566C23.2327 22.0566 22.1172 23.1721 22.1172 24.5423Z" fill="white"/>
</svg>
