<svg width="40" height="40" viewBox="0 0 40 40" fill="none" xmlns="http://www.w3.org/2000/svg">
<path d="M20 16C21.44 16 22.7733 15.64 24 14.92C25.2267 14.2 26.2 13.2267 26.92 12C27.64 10.7733 28 9.44001 28 8C28 6.55999 27.64 5.22667 26.92 4C26.2 2.77333 25.2267 1.8 24 1.08C22.7733 0.359997 21.44 0 20 0C18.56 0 17.2267 0.359997 16 1.08C14.7733 1.8 13.8 2.77333 13.08 4C12.36 5.22667 12 6.55999 12 8C12 9.44001 12.36 10.7733 13.08 12C13.8 13.2267 14.7733 14.2 16 14.92C17.2267 15.64 18.56 16 20 16ZM7 22C7.90667 22 8.74 21.7733 9.5 21.32C10.26 20.8667 10.8667 20.26 11.32 19.5C11.7733 18.74 12 17.9067 12 17C12 16.0933 11.7733 15.26 11.32 14.5C10.8667 13.74 10.26 13.1333 9.5 12.68C8.74 12.2267 7.90667 12 7 12C6.09333 12 5.26 12.2267 4.5 12.68C3.74 13.1333 3.13333 13.74 2.68 14.5C2.22666 15.26 2 16.0933 2 17C2 17.9067 2.22666 18.74 2.68 19.5C3.13333 20.26 3.74 20.8667 4.5 21.32C5.26 21.7733 6.09333 22 7 22ZM38 17C38 17.9067 37.7733 18.74 37.32 19.5C36.8667 20.26 36.26 20.8667 35.5 21.32C34.74 21.7733 33.9067 22 33 22C32.0933 22 31.26 21.7733 30.5 21.32C29.74 20.8667 29.1333 20.26 28.68 19.5C28.2267 18.74 28 17.9067 28 17C28 16.0933 28.2267 15.26 28.68 14.5C29.1333 13.74 29.74 13.1333 30.5 12.68C31.26 12.2267 32.0933 12 33 12C33.9067 12 34.74 12.2267 35.5 12.68C36.26 13.1333 36.8667 13.74 37.32 14.5C37.7733 15.26 38 16.0933 38 17ZM20 18C21.8133 18 23.4867 18.4467 25.02 19.34C26.5533 20.2333 27.7667 21.4467 28.66 22.98C29.5533 24.5133 30 26.1867 30 28V40H10V28C10 26.1867 10.4467 24.5133 11.34 22.98C12.2333 21.4467 13.4467 20.2333 14.98 19.34C16.5133 18.4467 18.1867 18 20 18ZM6 28C6 26.64 6.18666 25.3067 6.56 24L6.24 24.04C5.09333 24.1733 4.04001 24.56 3.08 25.2C2.11999 25.84 1.36667 26.6733 0.82 27.7C0.27333 28.7267 0 29.8267 0 31V40H6V28ZM40 40V31C40 29.7733 39.7067 28.64 39.12 27.6C38.5333 26.56 37.74 25.72 36.74 25.08C35.74 24.44 34.64 24.08 33.44 24C33.8133 25.3067 34 26.64 34 28V40H40Z" fill="black"/>
<path d="M20 16C21.44 16 22.7733 15.64 24 14.92C25.2267 14.2 26.2 13.2267 26.92 12C27.64 10.7733 28 9.44001 28 8C28 6.55999 27.64 5.22667 26.92 4C26.2 2.77333 25.2267 1.8 24 1.08C22.7733 0.359997 21.44 0 20 0C18.56 0 17.2267 0.359997 16 1.08C14.7733 1.8 13.8 2.77333 13.08 4C12.36 5.22667 12 6.55999 12 8C12 9.44001 12.36 10.7733 13.08 12C13.8 13.2267 14.7733 14.2 16 14.92C17.2267 15.64 18.56 16 20 16ZM7 22C7.90667 22 8.74 21.7733 9.5 21.32C10.26 20.8667 10.8667 20.26 11.32 19.5C11.7733 18.74 12 17.9067 12 17C12 16.0933 11.7733 15.26 11.32 14.5C10.8667 13.74 10.26 13.1333 9.5 12.68C8.74 12.2267 7.90667 12 7 12C6.09333 12 5.26 12.2267 4.5 12.68C3.74 13.1333 3.13333 13.74 2.68 14.5C2.22666 15.26 2 16.0933 2 17C2 17.9067 2.22666 18.74 2.68 19.5C3.13333 20.26 3.74 20.8667 4.5 21.32C5.26 21.7733 6.09333 22 7 22ZM38 17C38 17.9067 37.7733 18.74 37.32 19.5C36.8667 20.26 36.26 20.8667 35.5 21.32C34.74 21.7733 33.9067 22 33 22C32.0933 22 31.26 21.7733 30.5 21.32C29.74 20.8667 29.1333 20.26 28.68 19.5C28.2267 18.74 28 17.9067 28 17C28 16.0933 28.2267 15.26 28.68 14.5C29.1333 13.74 29.74 13.1333 30.5 12.68C31.26 12.2267 32.0933 12 33 12C33.9067 12 34.74 12.2267 35.5 12.68C36.26 13.1333 36.8667 13.74 37.32 14.5C37.7733 15.26 38 16.0933 38 17ZM20 18C21.8133 18 23.4867 18.4467 25.02 19.34C26.5533 20.2333 27.7667 21.4467 28.66 22.98C29.5533 24.5133 30 26.1867 30 28V40H10V28C10 26.1867 10.4467 24.5133 11.34 22.98C12.2333 21.4467 13.4467 20.2333 14.98 19.34C16.5133 18.4467 18.1867 18 20 18ZM6 28C6 26.64 6.18666 25.3067 6.56 24L6.24 24.04C5.09333 24.1733 4.04001 24.56 3.08 25.2C2.11999 25.84 1.36667 26.6733 0.82 27.7C0.27333 28.7267 0 29.8267 0 31V40H6V28ZM40 40V31C40 29.7733 39.7067 28.64 39.12 27.6C38.5333 26.56 37.74 25.72 36.74 25.08C35.74 24.44 34.64 24.08 33.44 24C33.8133 25.3067 34 26.64 34 28V40H40Z" fill="url(#paint0_linear_1_649)"/>
<defs>
<linearGradient id="paint0_linear_1_649" x1="40" y1="20.4444" x2="3.02497e-07" y2="20.4444" gradientUnits="userSpaceOnUse">
<stop stop-color="#1953FE"/>
<stop offset="1" stop-color="#51A1FF"/>
</linearGradient>
</defs>
</svg>
