<svg width="50" height="50" viewBox="0 0 50 50" fill="none" xmlns="http://www.w3.org/2000/svg">
<rect x="4" y="4" width="42" height="42" rx="12" fill="#1953FE"/>
<rect x="2" y="2" width="46" height="46" rx="14" stroke="#A3A3A3" stroke-opacity="0.4" stroke-width="4"/>
<path d="M24.8571 13C18.7038 13 13.7143 17.9256 13.7143 24H10L14.8162 28.7544L14.9029 28.9256L19.9048 24H16.1905C16.1905 19.27 20.0657 15.4444 24.8571 15.4444C29.6486 15.4444 33.5238 19.27 33.5238 24C33.5238 28.73 29.6486 32.5556 24.8571 32.5556C22.4676 32.5556 20.301 31.59 18.741 30.0378L16.9829 31.7733C19.001 33.7656 21.7743 35 24.8571 35C31.0105 35 36 30.0744 36 24C36 17.9256 31.0105 13 24.8571 13ZM23.619 19.1111V25.2222L28.881 28.3022L29.8343 26.7378L25.4762 24.1833V19.1111H23.619Z" fill="white"/>
</svg>
