<svg width="50" height="50" viewBox="0 0 50 50" fill="none" xmlns="http://www.w3.org/2000/svg">
<rect x="4" y="4" width="42" height="42" rx="12" fill="#1953FE"/>
<rect x="2" y="2" width="46" height="46" rx="14" stroke="#A3A3A3" stroke-opacity="0.4" stroke-width="4"/>
<path d="M32.6667 14.1107H31.5V11.7773H29.1667V14.1107H19.8333V11.7773H17.5V14.1107H16.3333C15.0383 14.1107 14 15.1607 14 16.444V32.7773C14 34.0607 15.0383 35.1107 16.3333 35.1107H32.6667C33.95 35.1107 35 34.0607 35 32.7773V16.444C35 15.1607 33.95 14.1107 32.6667 14.1107ZM32.6667 32.7773H16.3333V21.1107H32.6667V32.7773ZM32.6667 18.7773H16.3333V16.444H32.6667V18.7773ZM18.6667 23.444H24.5V29.2773H18.6667V23.444Z" fill="white"/>
</svg>
