<svg width="38" height="33" viewBox="0 0 38 33" fill="none" xmlns="http://www.w3.org/2000/svg">
<rect x="38" width="33" height="38" rx="16.5" transform="rotate(90 38 0)" fill="white"/>
<path d="M26.5 20.7475C26.5 21.0175 26.4399 21.295 26.3122 21.565C26.1845 21.835 26.0193 22.09 25.8015 22.33C25.4334 22.735 25.0278 23.0275 24.5696 23.215C24.1189 23.4025 23.6307 23.5 23.1049 23.5C22.3388 23.5 21.52 23.32 20.6562 22.9525C19.7924 22.585 18.9286 22.09 18.0724 21.4675C17.2086 20.8375 16.3898 20.14 15.6087 19.3675C14.835 18.5875 14.1365 17.77 13.513 16.915C12.8971 16.06 12.4014 15.205 12.0408 14.3575C11.6803 13.5025 11.5 12.685 11.5 11.905C11.5 11.395 11.5901 10.9075 11.7704 10.4575C11.9507 10 12.2361 9.58 12.6342 9.205C13.1149 8.7325 13.6407 8.5 14.1965 8.5C14.4069 8.5 14.6172 8.545 14.805 8.635C15.0003 8.725 15.173 8.86 15.3082 9.055L17.0508 11.5075C17.186 11.695 17.2837 11.8675 17.3513 12.0325C17.4189 12.19 17.4564 12.3475 17.4564 12.49C17.4564 12.67 17.4039 12.85 17.2987 13.0225C17.2011 13.195 17.0583 13.375 16.8781 13.555L16.3072 14.1475C16.2246 14.23 16.187 14.3275 16.187 14.4475C16.187 14.5075 16.1945 14.56 16.2096 14.62C16.2321 14.68 16.2546 14.725 16.2697 14.77C16.4049 15.0175 16.6377 15.34 16.9682 15.73C17.3062 16.12 17.6667 16.5175 18.0573 16.915C18.4629 17.3125 18.8535 17.68 19.2516 18.0175C19.6422 18.3475 19.9652 18.5725 20.2206 18.7075C20.2581 18.7225 20.3032 18.745 20.3558 18.7675C20.4159 18.79 20.476 18.7975 20.5436 18.7975C20.6713 18.7975 20.7689 18.7525 20.8515 18.67L21.4224 18.1075C21.6102 17.92 21.7904 17.7775 21.9632 17.6875C22.136 17.5825 22.3087 17.53 22.4965 17.53C22.6392 17.53 22.7894 17.56 22.9547 17.6275C23.1199 17.695 23.2927 17.7925 23.4805 17.92L25.9667 19.6825C26.162 19.8175 26.2972 19.975 26.3798 20.1625C26.4549 20.35 26.5 20.5375 26.5 20.7475Z" fill="#0A0510"/>
</svg>
