<svg width="36" height="36" viewBox="0 0 36 36" fill="none" xmlns="http://www.w3.org/2000/svg">
<circle cx="18" cy="18" r="18" fill="#4B7CD9"/>
<circle cx="18" cy="18" r="18" fill="url(#paint0_linear_2013_8)"/>
<path d="M27 23.8805C27 24.1865 26.9319 24.501 26.7872 24.807C26.6425 25.113 26.4552 25.402 26.2083 25.674C25.7912 26.133 25.3315 26.4645 24.8122 26.677C24.3015 26.8895 23.7481 27 23.1522 27C22.2839 27 21.356 26.796 20.3771 26.3795C19.3981 25.963 18.4191 25.402 17.4487 24.6965C16.4697 23.9825 15.5418 23.192 14.6565 22.3165C13.7797 21.4325 12.988 20.506 12.2814 19.537C11.5834 18.568 11.0215 17.599 10.6129 16.6385C10.2043 15.6695 10 14.743 10 13.859C10 13.281 10.1022 12.7285 10.3065 12.2185C10.5108 11.7 10.8343 11.224 11.2854 10.799C11.8302 10.2635 12.4261 10 13.0561 10C13.2944 10 13.5328 10.051 13.7456 10.153C13.967 10.255 14.1627 10.408 14.316 10.629L16.2909 13.4085C16.4442 13.621 16.5548 13.8165 16.6314 14.0035C16.7081 14.182 16.7506 14.3605 16.7506 14.522C16.7506 14.726 16.691 14.93 16.5719 15.1255C16.4612 15.321 16.2994 15.525 16.0951 15.729L15.4482 16.4005C15.3545 16.494 15.312 16.6045 15.312 16.7405C15.312 16.8085 15.3205 16.868 15.3375 16.936C15.363 17.004 15.3886 17.055 15.4056 17.106C15.5588 17.3865 15.8227 17.752 16.1973 18.194C16.5804 18.636 16.989 19.0865 17.4316 19.537C17.8913 19.9875 18.334 20.404 18.7852 20.7865C19.2278 21.1605 19.5939 21.4155 19.8833 21.5685C19.9259 21.5855 19.977 21.611 20.0366 21.6365C20.1047 21.662 20.1728 21.6705 20.2494 21.6705C20.3941 21.6705 20.5048 21.6195 20.5984 21.526L21.2454 20.8885C21.4582 20.676 21.6625 20.5145 21.8583 20.4125C22.0541 20.2935 22.2499 20.234 22.4627 20.234C22.6244 20.234 22.7947 20.268 22.982 20.3445C23.1693 20.421 23.365 20.5315 23.5779 20.676L26.3956 22.6735C26.6169 22.8265 26.7702 23.005 26.8638 23.2175C26.9489 23.43 27 23.6425 27 23.8805Z" fill="#1C1437"/>
<defs>
<linearGradient id="paint0_linear_2013_8" x1="36" y1="18.4" x2="2.72247e-07" y2="18.4" gradientUnits="userSpaceOnUse">
<stop stop-color="#1953FE"/>
<stop offset="1" stop-color="#51A1FF"/>
</linearGradient>
</defs>
</svg>
